<svg width="167" height="162" viewBox="0 0 167 162" fill="none" xmlns="http://www.w3.org/2000/svg">
<path d="M160.478 83.5C164.08 83.5 167.026 80.5752 166.745 76.984C165.715 63.8156 161.571 51.0462 154.617 39.7437C146.521 26.5848 134.932 15.9302 121.141 8.96538C107.35 2.0006 91.8964 -1.00123 76.5006 0.293878C61.1048 1.58899 46.3702 7.13025 33.9363 16.3011C21.5024 25.472 11.8567 37.9128 6.07246 52.2394C0.288246 66.566 -1.40766 82.2164 1.17344 97.4495C3.75454 112.683 10.5114 126.901 20.6923 138.522C29.4369 148.504 40.413 156.234 52.6896 161.108C56.0376 162.437 59.7022 160.486 60.766 157.044V157.044C61.8299 153.602 59.8871 149.978 56.5586 148.601C46.5814 144.472 37.658 138.092 30.5045 129.926C21.9141 120.12 16.2128 108.123 14.035 95.2702C11.8571 82.417 13.2881 69.2115 18.1686 57.1231C23.0492 45.0347 31.188 34.5375 41.6794 26.7993C52.1709 19.0612 64.6035 14.3856 77.5941 13.2928C90.5847 12.2 103.624 14.7329 115.26 20.6096C126.897 26.4863 136.675 35.4764 143.507 46.5795C149.196 55.8256 152.655 66.235 153.653 76.9867C153.986 80.5735 156.875 83.5 160.478 83.5V83.5Z" fill="#818CF8"/>
</svg>
